<?xml version="1.0" encoding="UTF-8"?>
<svg id="Layer_1" xmlns="http://www.w3.org/2000/svg" version="1.1" viewBox="0 0 60 60">
  <!-- Generator: Adobe Illustrator 29.1.0, SVG Export Plug-In . SVG Version: 2.1.0 Build 142)  -->
  <defs>
    <style>
      .st0 {
        fill: #fc0;
      }

      .st1, .st2, .st3, .st4 {
        fill-rule: evenodd;
      }

      .st1, .st5 {
        fill: #fff;
      }

      .st2 {
        fill: #008444;
      }

      .st3 {
        fill: #fd0;
      }

      .st6 {
        font-family: ArialNarrow, 'Arial Narrow';
        font-size: 4.7px;
      }

      .st6, .st7 {
        isolation: isolate;
      }

      .st8 {
        fill: red;
      }
    </style>
  </defs>
  <g>
    <path id="path324" class="st4" d="M44.1,59.6c-8.5,0-15.4-6.9-15.4-15.4v-19.2h30.8v19.2c0,8.5-6.9,15.4-15.4,15.4"/>
    <path id="path328" class="st3" d="M39,28.4h20.2v3.3h-19c0-.2,0-.5-.2-.8-.3-.4-.8-.4-1.1-.1,0,0-.1.1-.2.2-.3-.2-.7-.3-1,0-.2.2-.3.4-.2.7h0s-.7,0-.7,0c-.2,0-.4-.2-.6-.4-.4-.5-.4-1.3.1-1.8,0,0,.2,0,.2,0,0,0,0,0,0,.1,0,.3-.1.4-.3.6h.1c.3.4.9.6,1.3.3.3.2.8.2,1.1,0,.3-.3.4-.7.2-1,.2-.3.3-.7.1-1M44.8,35.2h14.3v3.3h-13.1c.1-.2,0-.5-.2-.8-.3-.4-.8-.4-1.1-.1,0,0-.1.1-.2.2-.3-.2-.7-.3-1,0-.2.2-.3.4-.2.7h-.8c-.2,0-.4-.2-.6-.4-.4-.5-.4-1.4.1-1.8,0,0,.2,0,.2,0,0,0,0,0,0,.1,0,.3-.1.4-.3.6h.1c.3.4.9.5,1.3.3.3.2.8.2,1.1,0,.3-.3.4-.7.2-1,.2-.3.3-.7.1-1M50.7,41.9h8.5v2.3c0,.3,0,.7,0,1h-7.3c.1-.2,0-.5-.2-.8-.3-.4-.8-.4-1.1-.1,0,0-.1.1-.2.2-.3-.2-.7-.3-1,0-.2.2-.3.4-.2.7,0,0,0,0,0,0h-.7c-.2,0-.4-.2-.6-.4-.4-.5-.4-1.4.1-1.8,0,0,.2,0,.2,0,0,0,0,0,0,.1,0,.3-.1.4-.3.6h.1c.3.4.9.5,1.3.3.3.2.8.2,1.1,0,.3-.3.4-.7.2-1,.2-.3.3-.7.1-1M56.5,48.7h2c-.3.8-.6,1.7-1,2.4-.3-.3-.7-.3-1,0,0,0-.1.1-.2.2-.3-.2-.7-.3-1,0-.2.2-.3.4-.2.7,0,0,0,0,0,0h-.7c-.2,0-.4-.2-.6-.4-.4-.5-.4-1.3.1-1.8,0,0,.2,0,.2,0,0,0,0,0,0,.1,0,.3-.1.4-.3.6h.1c.3.4.9.6,1.3.3.3.2.8.2,1.1,0,.3-.3.4-.7.2-1,.2-.3.3-.7.1-1M29.1,31.7v-2.9l2.6,2.9h-2.6ZM29.1,38.5v-3.3h5.6l2.8,3.3h-8.4ZM29.2,45.2c0-.3,0-.6,0-1v-2.3h11.4l2.8,3.3h-14.2ZM52.3,55.4l.8.9c-2.5,1.8-5.6,2.9-8.9,2.9s-7.4-1.5-10-3.8h18.2ZM31.3,51.9c-.6-1-1.1-2.1-1.5-3.3h16.6l2.8,3.3h-18Z"/>
    <path id="path332" class="st2" d="M40.7,37.6c-.1-.5,0-1,.2-1.5-.5.2-1,.1-1.5,0l1.3,1.5h0ZM34.8,30.9c-.1-.5,0-1,.2-1.5-.5.2-1,.1-1.5,0l1.3,1.5h0ZM37.7,34.3c-.1-.5,0-1,.2-1.5-.5.2-1,.1-1.5,0l1.3,1.5h0ZM43.6,41c-.1-.5,0-1,.2-1.5-.5.2-1,.1-1.5,0l1.3,1.5h0ZM46.5,44.3c-.1-.5,0-1,.2-1.5-.5.2-1,.1-1.5,0l1.3,1.5h0ZM49.5,47.7c-.1-.5,0-1,.2-1.5-.5.2-1,.1-1.5,0l1.3,1.5h0ZM52.4,51.1c-.1-.5,0-1,.2-1.5-.5.2-1,.1-1.5,0l1.3,1.5h0ZM55.2,54.3h0c0-.5,0-1,.2-1.4-.5.2-1,.1-1.5,0l1.3,1.4h0ZM31.9,27.5c-.1-.5,0-1,.2-1.5-.5.2-1,.1-1.5,0,0,0,1.3,1.5,1.3,1.5ZM53.6,55.9l-24.5-28.1v.6l24.2,27.8c.1,0,.2-.2.3-.2M29.1,27.2l24.7,28.4c.2-.2.4-.4.6-.6l-25.4-29.2v1.3ZM47.1,45.5l-17.5-20.1h-.5c0,0,25.6,29.5,25.6,29.5,0-.1.2-.2.3-.3l-7.9-9.1h0ZM57.3,51.4h0c-.2-.2-.4-.2-.6,0,0,0-.2.2-.2.3h-.3c-.2-.2-.5-.3-.7-.1-.2.2-.1.4,0,.6-.7.3-1.5.4-2.1-.3-.5-.7-.5-1.7.1-2.2.2-.2.5-.2.7,0,.1.1.1.3.1.4,0,.2,0,.4-.2.5.3.2.6.2.9,0,.3.2.6.3.9,0,.3-.3.2-.6,0-.9.3-.2.4-.5.2-.9-.4.2-.9.2-1.1,0-.2-.2-.2-.5,0-.6.3-.2.8-.1,1.1.1.2-.3.2-.6,0-.9.2-.3.3-.6,0-.9s-.6-.2-.9,0c-.2-.3-.5-.4-.9-.2.2.4.2.9,0,1.1-.2.2-.5.2-.7,0-.2-.3-.1-.8.1-1.1-.3-.2-.6-.2-.9,0-.3-.2-.6-.3-.9,0s-.2.6,0,.9c-.3.2-.4.5-.2.9.2,0,.4-.1.5-.1s.3,0,.4.2c.2.2.2.5,0,.7-.7.6-1.7.4-2.2-.2-.6-.7-.4-1.4,0-2.1.2.2.3.3.5,0,.2-.2.1-.5,0-.7v-.3c.2,0,.3,0,.4-.1.2-.2.2-.4,0-.6-.2-.2-.4-.2-.6,0-.1,0-.2.2-.2.3h-.3c-.2-.2-.5-.3-.7-.1-.2.2-.1.4,0,.6-.7.4-1.5.4-2.1-.3-.5-.6-.5-1.7.1-2.2.2-.2.5-.2.7,0,.1.1.1.3.1.4,0,.2,0,.4-.2.5.3.2.6.2.9,0,.3.2.6.3.9,0s.2-.6,0-.9c.3-.2.4-.5.2-.9-.4.2-.9.2-1.1,0-.2-.2-.2-.5,0-.6.3-.2.8-.1,1.1.1.2-.3.2-.6,0-.9.2-.3.3-.6,0-.9-.3-.3-.6-.2-.9,0-.2-.3-.5-.4-.9-.2.2.3.2.9,0,1.1-.2.2-.5.2-.7,0-.2-.3-.1-.8.1-1.1-.3-.2-.6-.2-.9,0-.3-.2-.6-.3-.9,0-.3.3-.2.6,0,.9-.3.2-.4.5-.2.9.2,0,.4-.1.5-.1s.3,0,.4.2c.2.2.2.5,0,.7-.7.6-1.7.4-2.2-.2-.6-.7-.4-1.5,0-2.1.2.2.3.3.5,0,.2-.2.1-.5,0-.7v-.3c.2,0,.3,0,.4-.1.2-.2.2-.4,0-.6-.2-.2-.4-.2-.6,0-.1,0-.2.2-.2.3h-.3c-.2-.2-.5-.3-.7-.1-.2.2-.1.4,0,.5-.7.4-1.5.4-2.1-.3-.5-.6-.5-1.7.1-2.2.2-.2.5-.2.7,0,.1.1.1.3.1.4,0,.2,0,.4-.2.5.3.2.6.2.9,0,.3.2.6.3.9,0s.2-.6,0-.9c.3-.2.4-.5.2-.9-.4.2-.9.2-1.1,0-.2-.2-.2-.5,0-.6.3-.2.8-.1,1.1.1.2-.3.2-.6,0-.9.2-.3.3-.6,0-.9-.2-.3-.6-.2-.9,0-.2-.3-.5-.4-.9-.2.2.4.2.9,0,1.1-.2.2-.5.2-.7,0-.2-.3-.1-.8.1-1.1-.3-.2-.6-.2-.9,0-.3-.2-.6-.3-.9,0-.3.2-.2.6,0,.9-.3.2-.4.5-.2.9.2,0,.4-.1.5-.1s.3,0,.4.2c.2.2.2.5,0,.7-.7.6-1.7.4-2.2-.2-.6-.7-.4-1.5,0-2.1.2.2.3.3.5.1.2-.2.1-.5,0-.7v-.3c.2,0,.3,0,.4-.1.2-.2.2-.4,0-.6-.2-.2-.4-.2-.6,0,0,0-.1.2-.2.3h-.3c-.2-.2-.5-.3-.7-.1-.2.2-.1.4,0,.6-.7.3-1.5.4-2.1-.3-.5-.7-.5-1.7.1-2.2.2-.2.5-.2.7,0,.1.1.1.3.1.4,0,.2,0,.4-.2.5.3.2.6.2.9,0,.3.2.6.3.9,0,.3-.3.2-.6,0-.9.3-.2.4-.5.2-.9-.4.2-.9.2-1.1,0-.2-.2-.2-.5,0-.6.3-.2.8-.1,1.1.1.2-.3.2-.6,0-.9.2-.3.3-.6,0-.9-.3-.3-.6-.2-.9,0-.2-.3-.5-.4-.9-.2.2.4.2.9,0,1.1-.2.2-.5.2-.7,0-.2-.3-.1-.8.1-1.1-.3-.2-.6-.2-.9,0-.3-.2-.6-.3-.9,0-.3.2-.2.6,0,.9-.3.2-.4.5-.2.9.2,0,.4-.1.5-.1s.3,0,.4.2c.2.2.2.5,0,.7-.7.6-1.7.4-2.2-.2-.6-.7-.4-1.4,0-2.1.2.2.3.3.5,0,.2-.2.2-.5-.2-.8h-3.3c.6.5,1.5.6,2.2.2h.1c0,.1.1.3.1.3-.6.8-.5,1.9.1,2.6s1.7.9,2.6.5v.2c.1,0,.3.1.3.1-.6.8-.5,1.9.1,2.6s1.7.9,2.6.5h.1c0,.1.1.3.1.3-.6.8-.5,1.9.1,2.6s1.7.9,2.6.5h.1c0,.1.1.3.1.3-.5.8-.5,1.9.1,2.6.7.7,1.7.9,2.6.5h.1c0,.1.1.3.1.3-.6.8-.5,1.9.1,2.6.7.7,1.7.9,2.6.5v.2c.1,0,.3.1.3.1-.6.8-.5,1.9.1,2.6.7.7,1.7.9,2.6.5h.1c0,.1.1.3.1.3-.6.8-.5,1.9.1,2.6.7.7,1.7.9,2.6.5h.1c0,.1.1.3.1.3-.6.8-.5,1.9.1,2.6.7.7,1.7.9,2.6.5v.2c.1,0,.3.1.3.1-.2.3-.4.8-.4,1.1.7-.8,1.3-1.6,1.7-2.5M52.4,46.6l.2-.2.8,1-.2.2-.8-1ZM55.5,50.2l.2-.2-.8-1-.2.2.8,1ZM53.9,48.1c.1-.1.3,0,.4,0,.1.1,0,.3,0,.4-.1.1-.3,0-.4,0s0-.3,0-.4M53.7,47.9c.2-.2.5-.2.8,0,.2.2.2.5,0,.8-.2.2-.5.2-.8,0-.2-.2-.2-.5,0-.8M50.1,40.1l-.2-.2-1,.8.2.2,1-.8ZM49.7,43.4l.2-.2-.8-1-.2.2.8,1ZM46.5,39.8l.2-.2.8,1-.2.2-.8-1ZM48.4,41.7c.1-.1.1-.3,0-.4-.1-.1-.3-.1-.4,0s-.1.3,0,.4c.1.1.3.1.4,0M48.5,41.9c.2-.2.2-.5,0-.7-.2-.2-.5-.2-.8,0-.2.2-.2.5,0,.8.2.2.5.2.8,0M44.1,33.1l.2.2-1,.8-.2-.2,1-.8h0ZM40.7,33.1l.2-.2.8,1-.2.2s-.8-1-.8-1ZM43.8,36.7l.2-.2-.8-1-.2.2.8,1ZM42.2,34.6c.1-.1.3,0,.4,0,.1.1,0,.3,0,.4-.1.1-.3,0-.4,0-.1-.1,0-.3,0-.4M42,34.4c.2-.2.5-.2.8,0,.2.2.2.5,0,.8-.2.2-.5.2-.8,0-.2-.2-.2-.5,0-.8M38.4,26.6l-.2-.2-1,.8.2.2,1-.8ZM38,30l.2-.2-.8-1-.2.2.8,1ZM34.8,26.4l.2-.2.8,1-.2.2-.8-1ZM36.7,28.3c.1-.1.1-.3,0-.4-.1-.1-.3-.1-.4,0s-.1.3,0,.4c.1.1.3.1.4,0M36.8,28.5c.2-.2.2-.5,0-.8-.2-.2-.5-.2-.8,0-.2.2-.2.5,0,.7.2.2.5.2.8,0M55.7,46.6l.2.2-1,.8-.2-.2,1-.8Z"/>
  </g>
  <g>
    <g id="bundesadler">
      <path d="M10.5,8.8c.2.3.5.7.9,1-.6,0-1,0-1.5-.8v-.2c-.1,0-1.4-2.1-1.4-2.1,0,0-.2,0-.3.1l1.3,2,.4.6c.2.3.5.8,1,1.1-.6,0-1,0-1.5-.8l-.6-.9-1.1-1.9c-.1.2-.1.3-.1.4,0,.5.2,1,.5,1.4.2.3.5.6.8.8,0,0-.1,0-.2,0h-.3c.2.4.5.8.7,1.1.2,0,.5,0,.8,0s.3.1.3.2c0,.2-.1.4-.2.4,0-.1-.1-.2-.5-.2,0,.1.4.4.4.7s-.2.4-.4.4h0c0-.3-.2-.6-.3-.7h0c0,.6,0,.8-.3.8s-.2,0-.3-.1c.2-.2.2-.3.2-.6v-.4h-.2s-.4,0-.5.2c-.1-.1-.3-.3-.3-.4s0-.2.3-.2.3,0,.5,0c0-.1-.3-.5-.5-.8,0,.1,0,.2-.2.3,0-.2-.1-.7-.4-1.1,0,.2,0,.4,0,.9,0,1.2.3,2,.9,2.2,0,.1-.2.3-.4.3s-.3-.2-.5-.5c0,.2-.2.6-.4.6s-.3-.4-.4-.6c-.1.2-.2.5-.5.5s-.3-.1-.4-.3c.6-.2.9-1,.9-2.2s0-.7,0-.9c-.3.3-.4.9-.4,1.1-.1-.1-.2-.2-.2-.3-.2.3-.5.7-.5.8.2,0,.5,0,.5,0,.2,0,.3.1.3.2,0,.2-.2.3-.3.4-.1-.2-.5-.2-.5-.2h-.2v.4c0,.3,0,.4.2.6,0,0-.1.1-.3.1-.3,0-.3-.2-.3-.7s0,0,0-.1c-.2.2-.3.4-.3.6s0,0,0,.1c-.2,0-.4-.2-.4-.4s.4-.5.5-.7c-.4,0-.5.1-.6.2-.1,0-.2-.3-.2-.4s0-.2.2-.2.5,0,.8,0c.2-.2.5-.7.7-1.1h-.3c-.1,0-.2,0-.2,0,.3-.2.5-.5.8-.8.3-.4.5-.9.5-1.4s0-.3,0-.4l-1.2,1.9-.6.9c-.5.8-.9.8-1.5.8.5-.4.8-.9,1-1.1l.4-.6,1.3-2c0,0-.2,0-.3-.1l-1.3,2.1v.2c-.6.8-1,.8-1.6.8.4-.3.7-.7.9-1h.1c0-.1,1.4-2.3,1.4-2.3,0,0-.2,0-.2-.1l-1.1,1.8c-.2.4-.4.6-.7.7-.3.1-.5.1-.9.1h.2c.4-.5.7-.9.9-1.1l1.2-1.9c0,0-.1-.1-.2-.2l-.8,1.3c-.5.8-.9.8-1.5.8.5-.4.8-.9,1-1.1l1-1.5c0-.1-.1-.2-.1-.3l-.5.8c-.5.8-.9.8-1.5.8.5-.4.8-.9,1-1.1l.9-1.5c.1-.5.3-.9.7-1.2-.1,0-.2-.1-.3-.1.6,0,1.2-.3,1.6-.3s.4.1.4.3-.2.4-.6.4-.2,0-.3,0c-.2.3-.4.5-.4.9,0,.7.8,1.2,1.6,1.2h.1c.2-.5.5-.9.8-1.2-.3-.1-.7-.4-.7-.6,0,0,.7.2.7.2s.2-.1.2-.1c0,0-.4,0-.7-.2-.2,0-.3-.2-.3-.3,0,0,.3.1.7.1s.2,0,.3,0c-.1-.2-.3-.4-.5-.4s-.3,0-.4.1c-.1-.2-.2-.4-.2-.5s.1-.3.5-.3.2,0,.3,0,.1,0,.2,0c0-.1,0-.2.2-.2.3,0,.6.1,1,.1s.2,0,.2,0c0,0-.1.2-.2.3,0,0,.2.3.2.6,0,.5-.3.9-.3,1.5s.2.6.3.8h.1c.8,0,1.6-.5,1.6-1.2s-.2-.6-.4-.9c-.1,0-.2,0-.3,0-.4,0-.5-.2-.6-.4,0-.2.1-.3.4-.3.3,0,.9.3,1.6.3,0,0-.2.1-.3.1.4.3.6.8.7,1.2l.9,1.5c.2.3.5.8,1,1.1-.6,0-1,0-1.5-.8l-.5-.8c0,.1,0,.2-.1.3l1,1.5c.2.3.5.8,1,1.1-.6,0-1,0-1.5-.8l-.8-1.3c0,0-.1.1-.2.2l1.2,1.9c.2.2.4.7.9,1h.2c-.3.1-.6.1-.9,0-.2-.1-.4-.3-.7-.7l-1.1-1.8c0,0-.2.1-.2.1l1.4,2.2v.2h.3Z"/>
      <g>
        <path class="st1" d="M5.5,9.8c0-.1,0-.2-.2-.2s-.1,0-.1,0c-.1.4-.7,1.1-.8,1.2-.2,0-.5,0-.8,0s-.2,0-.2.1,0,.2,0,.3c.1-.1.3-.2.5-.2s.2,0,.3,0c-.3.3-.6.6-.6.8s.1.2.2.3c0-.3.3-.6.5-.8v.3c0,.5,0,.6.2.6s.1,0,.1,0c-.1-.1-.1-.3-.1-.5s0-.2,0-.2v-.3c0,0,.2,0,.3,0,.3,0,.4,0,.5.1,0,0,.2-.2.2-.3s0-.1-.2-.1c-.1,0-.2,0-.7,0,.1-.3.4-.7.7-1h0Z"/>
        <path class="st5" d="M8.4,10.8c-.5,0-.6,0-.7,0s-.2,0-.2.1.1.2.2.3c.1-.1.3-.1.5-.1s.3,0,.3,0v.5c0,.3,0,.4-.1.5h.1c.2,0,.2-.1.2-.6s0-.3,0-.3c.3.2.5.5.5.8,0,0,.2-.2.2-.3,0-.2-.3-.4-.6-.8,0,0,.2,0,.3,0,.2,0,.4,0,.5.2,0,0,0-.2,0-.3,0-.2,0-.1-.2-.1-.3,0-.6,0-.8,0,0-.1-.6-.8-.8-1.2,0,0,0,0-.1,0-.1,0-.2,0-.2.2.3.4.6.7.7,1h0Z"/>
        <path class="st5" d="M9.9,3.9c0-.6-.4-1-.6-1.1h-.1c.2.2.4.5.4,1,0,.8-.9,1.6-1.9,1.6v.6c1.1,0,2.1-.9,2.1-2h0Z"/>
        <path class="st5" d="M3.5,3.7c0-.4.3-.7.4-.9h-.1c-.2.1-.6.5-.6,1.1,0,1,1,1.9,2.2,2v-.6c-1,0-1.9-.7-1.9-1.6h0Z"/>
        <path class="st5" d="M6.5,2.9c0-.1.1-.3.1-.4,0-.4-.4-.7-.8-.7s-.4,0-.4.2,0,.3.1.3c0,0,.3,0,.3,0,.3,0,.6.4.6.7h0Z"/>
        <path class="st1" d="M6.8,2.4c.3,0,.5-.3.2-.4,0,.1-.2.2-.2.2,0,0,0-.2,0-.3-.2,0-.2,0-.2.1,0,0,.1.2.1.3h0Z"/>
      </g>
    </g>
    <g id="flag">
      <rect x="15.2" y=".7" width="1.5" height="8.4"/>
      <rect class="st8" x="15.2" y="9.1" width="1.5" height="8.4"/>
      <rect class="st0" x="15.2" y="17.4" width="1.5" height="8.4"/>
    </g>
    <g id="text">
      <g class="st7">
        <text class="st6" transform="translate(19.7 5.4)"><tspan x="0" y="0">Federal Ministry</tspan></text>
      </g>
      <g class="st7">
        <text class="st6" transform="translate(19.7 10.4)"><tspan x="0" y="0">of Education</tspan></text>
      </g>
      <g class="st7">
        <text class="st6" transform="translate(19.7 15.4)"><tspan x="0" y="0">and Research</tspan></text>
      </g>
    </g>
  </g>
</svg>